<?xml version="1.0" encoding="UTF-8" standalone="no"?><svg xmlns="http://www.w3.org/2000/svg" xmlns:xlink="http://www.w3.org/1999/xlink" contentScriptType="application/ecmascript" contentStyleType="text/css" height="2919px" preserveAspectRatio="none" style="width:281px;height:2919px;" version="1.1" viewBox="0 0 281 2919" width="281px" zoomAndPan="magnify"><defs><filter height="300%" id="f17n3sztgl4y31" width="300%" x="-1" y="-1"><feGaussianBlur result="blurOut" stdDeviation="2.0"/><feColorMatrix in="blurOut" result="blurOut2" type="matrix" values="0 0 0 0 0 0 0 0 0 0 0 0 0 0 0 0 0 0 .4 0"/><feOffset dx="4.0" dy="4.0" in="blurOut2" result="blurOut3"/><feBlend in="SourceGraphic" in2="blurOut3" mode="normal"/></filter></defs><g><ellipse cx="215.5" cy="18" fill="#000000" filter="url(#f17n3sztgl4y31)" rx="10" ry="10" style="stroke: none; stroke-width: 1.0;"/><rect fill="#FEFECE" filter="url(#f17n3sztgl4y31)" height="35.0938" rx="12.5" ry="12.5" style="stroke: #A80036; stroke-width: 1.5;" width="109" x="161" y="83"/><text fill="#000000" font-family="sans-serif" font-size="12" lengthAdjust="spacingAndGlyphs" textLength="89" x="171" y="105.457">null,null,null,null</text><rect fill="#FEFECE" filter="url(#f17n3sztgl4y31)" height="35.0938" rx="12.5" ry="12.5" style="stroke: #A80036; stroke-width: 1.5;" width="96" x="167.5" y="173"/><text fill="#000000" font-family="sans-serif" font-size="12" lengthAdjust="spacingAndGlyphs" textLength="76" x="177.5" y="195.457">0,null,null,null</text><rect fill="#FEFECE" filter="url(#f17n3sztgl4y31)" height="35.0938" rx="12.5" ry="12.5" style="stroke: #A80036; stroke-width: 1.5;" width="83" x="174" y="263"/><text fill="#000000" font-family="sans-serif" font-size="12" lengthAdjust="spacingAndGlyphs" textLength="63" x="184" y="285.457">0,0,null,null</text><rect fill="#FEFECE" filter="url(#f17n3sztgl4y31)" height="35.0938" rx="12.5" ry="12.5" style="stroke: #A80036; stroke-width: 1.5;" width="70" x="180.5" y="353"/><text fill="#000000" font-family="sans-serif" font-size="12" lengthAdjust="spacingAndGlyphs" textLength="50" x="190.5" y="375.457">0,0,null,0</text><rect fill="#FF0000" filter="url(#f17n3sztgl4y31)" height="35.0938" rx="12.5" ry="12.5" style="stroke: #A80036; stroke-width: 1.5;" width="57" x="187" y="443"/><text fill="#000000" font-family="sans-serif" font-size="12" lengthAdjust="spacingAndGlyphs" textLength="37" x="197" y="465.457">0,0,0,0</text><rect fill="#FEFECE" filter="url(#f17n3sztgl4y31)" height="35.0938" rx="12.5" ry="12.5" style="stroke: #A80036; stroke-width: 1.5;" width="57" x="127" y="533"/><text fill="#000000" font-family="sans-serif" font-size="12" lengthAdjust="spacingAndGlyphs" textLength="37" x="137" y="555.457">0,1,0,0</text><rect fill="#FEFECE" filter="url(#f17n3sztgl4y31)" height="35.0938" rx="12.5" ry="12.5" style="stroke: #A80036; stroke-width: 1.5;" width="57" x="127" y="623"/><text fill="#000000" font-family="sans-serif" font-size="12" lengthAdjust="spacingAndGlyphs" textLength="37" x="137" y="645.457">0,1,1,0</text><rect fill="#FEFECE" filter="url(#f17n3sztgl4y31)" height="35.0938" rx="12.5" ry="12.5" style="stroke: #A80036; stroke-width: 1.5;" width="57" x="127" y="713"/><text fill="#000000" font-family="sans-serif" font-size="12" lengthAdjust="spacingAndGlyphs" textLength="37" x="137" y="735.457">0,1,2,0</text><rect fill="#FEFECE" filter="url(#f17n3sztgl4y31)" height="35.0938" rx="12.5" ry="12.5" style="stroke: #A80036; stroke-width: 1.5;" width="57" x="127" y="803"/><text fill="#000000" font-family="sans-serif" font-size="12" lengthAdjust="spacingAndGlyphs" textLength="37" x="137" y="825.457">0,1,3,0</text><rect fill="#FEFECE" filter="url(#f17n3sztgl4y31)" height="35.0938" rx="12.5" ry="12.5" style="stroke: #A80036; stroke-width: 1.5;" width="57" x="127" y="893"/><text fill="#000000" font-family="sans-serif" font-size="12" lengthAdjust="spacingAndGlyphs" textLength="37" x="137" y="915.457">0,1,3,1</text><rect fill="#FEFECE" filter="url(#f17n3sztgl4y31)" height="35.0938" rx="12.5" ry="12.5" style="stroke: #A80036; stroke-width: 1.5;" width="57" x="127" y="983"/><text fill="#000000" font-family="sans-serif" font-size="12" lengthAdjust="spacingAndGlyphs" textLength="37" x="137" y="1005.457">0,1,3,2</text><rect fill="#FEFECE" filter="url(#f17n3sztgl4y31)" height="35.0938" rx="12.5" ry="12.5" style="stroke: #A80036; stroke-width: 1.5;" width="57" x="126" y="1073"/><text fill="#000000" font-family="sans-serif" font-size="12" lengthAdjust="spacingAndGlyphs" textLength="37" x="136" y="1095.457">0,1,3,3</text><rect fill="#FEFECE" filter="url(#f17n3sztgl4y31)" height="35.0938" rx="12.5" ry="12.5" style="stroke: #A80036; stroke-width: 1.5;" width="57" x="121" y="1163"/><text fill="#000000" font-family="sans-serif" font-size="12" lengthAdjust="spacingAndGlyphs" textLength="37" x="131" y="1185.457">0,1,3,4</text><rect fill="#FEFECE" filter="url(#f17n3sztgl4y31)" height="35.0938" rx="12.5" ry="12.5" style="stroke: #A80036; stroke-width: 1.5;" width="57" x="100" y="1253"/><text fill="#000000" font-family="sans-serif" font-size="12" lengthAdjust="spacingAndGlyphs" textLength="37" x="110" y="1275.457">0,1,4,4</text><rect fill="#FEFECE" filter="url(#f17n3sztgl4y31)" height="35.0938" rx="12.5" ry="12.5" style="stroke: #A80036; stroke-width: 1.5;" width="57" x="72" y="1343"/><text fill="#000000" font-family="sans-serif" font-size="12" lengthAdjust="spacingAndGlyphs" textLength="37" x="82" y="1365.457">0,1,5,4</text><rect fill="#FEFECE" filter="url(#f17n3sztgl4y31)" height="35.0938" rx="12.5" ry="12.5" style="stroke: #A80036; stroke-width: 1.5;" width="57" x="72" y="1433"/><text fill="#000000" font-family="sans-serif" font-size="12" lengthAdjust="spacingAndGlyphs" textLength="37" x="82" y="1455.457">0,0,5,4</text><rect fill="#FEFECE" filter="url(#f17n3sztgl4y31)" height="35.0938" rx="12.5" ry="12.5" style="stroke: #A80036; stroke-width: 1.5;" width="57" x="72" y="1523"/><text fill="#000000" font-family="sans-serif" font-size="12" lengthAdjust="spacingAndGlyphs" textLength="37" x="82" y="1545.457">0,0,5,3</text><rect fill="#FEFECE" filter="url(#f17n3sztgl4y31)" height="35.0938" rx="12.5" ry="12.5" style="stroke: #A80036; stroke-width: 1.5;" width="57" x="34" y="1613"/><text fill="#000000" font-family="sans-serif" font-size="12" lengthAdjust="spacingAndGlyphs" textLength="37" x="44" y="1635.457">0,1,5,3</text><rect fill="#FEFECE" filter="url(#f17n3sztgl4y31)" height="35.0938" rx="12.5" ry="12.5" style="stroke: #A80036; stroke-width: 1.5;" width="57" x="111" y="1613"/><text fill="#000000" font-family="sans-serif" font-size="12" lengthAdjust="spacingAndGlyphs" textLength="37" x="121" y="1635.457">0,0,5,2</text><rect fill="#FEFECE" filter="url(#f17n3sztgl4y31)" height="35.0938" rx="12.5" ry="12.5" style="stroke: #A80036; stroke-width: 1.5;" width="57" x="127" y="1703"/><text fill="#000000" font-family="sans-serif" font-size="12" lengthAdjust="spacingAndGlyphs" textLength="37" x="137" y="1725.457">0,1,5,2</text><rect fill="#FEFECE" filter="url(#f17n3sztgl4y31)" height="35.0938" rx="12.5" ry="12.5" style="stroke: #A80036; stroke-width: 1.5;" width="57" x="50" y="1703"/><text fill="#000000" font-family="sans-serif" font-size="12" lengthAdjust="spacingAndGlyphs" textLength="37" x="60" y="1725.457">0,0,5,1</text><rect fill="#FEFECE" filter="url(#f17n3sztgl4y31)" height="35.0938" rx="12.5" ry="12.5" style="stroke: #A80036; stroke-width: 1.5;" width="57" x="105" y="1793"/><text fill="#000000" font-family="sans-serif" font-size="12" lengthAdjust="spacingAndGlyphs" textLength="37" x="115" y="1815.457">0,1,5,1</text><rect fill="#FEFECE" filter="url(#f17n3sztgl4y31)" height="35.0938" rx="12.5" ry="12.5" style="stroke: #A80036; stroke-width: 1.5;" width="57" x="28" y="1793"/><text fill="#000000" font-family="sans-serif" font-size="12" lengthAdjust="spacingAndGlyphs" textLength="37" x="38" y="1815.457">0,0,5,0</text><rect fill="#FEFECE" filter="url(#f17n3sztgl4y31)" height="35.0938" rx="12.5" ry="12.5" style="stroke: #A80036; stroke-width: 1.5;" width="57" x="83" y="1883"/><text fill="#000000" font-family="sans-serif" font-size="12" lengthAdjust="spacingAndGlyphs" textLength="37" x="93" y="1905.457">0,1,5,0</text><rect fill="#FEFECE" filter="url(#f17n3sztgl4y31)" height="35.0938" rx="12.5" ry="12.5" style="stroke: #A80036; stroke-width: 1.5;" width="57" x="6" y="1883"/><text fill="#000000" font-family="sans-serif" font-size="12" lengthAdjust="spacingAndGlyphs" textLength="37" x="16" y="1905.457">0,0,4,0</text><rect fill="#FEFECE" filter="url(#f17n3sztgl4y31)" height="35.0938" rx="12.5" ry="12.5" style="stroke: #A80036; stroke-width: 1.5;" width="57" x="6" y="1973"/><text fill="#000000" font-family="sans-serif" font-size="12" lengthAdjust="spacingAndGlyphs" textLength="37" x="16" y="1995.457">1,0,4,0</text><rect fill="#FEFECE" filter="url(#f17n3sztgl4y31)" height="35.0938" rx="12.5" ry="12.5" style="stroke: #A80036; stroke-width: 1.5;" width="57" x="6" y="2063"/><text fill="#000000" font-family="sans-serif" font-size="12" lengthAdjust="spacingAndGlyphs" textLength="37" x="16" y="2085.457">1,0,3,0</text><rect fill="#FEFECE" filter="url(#f17n3sztgl4y31)" height="35.0938" rx="12.5" ry="12.5" style="stroke: #A80036; stroke-width: 1.5;" width="57" x="6" y="2153"/><text fill="#000000" font-family="sans-serif" font-size="12" lengthAdjust="spacingAndGlyphs" textLength="37" x="16" y="2175.457">2,0,3,0</text><rect fill="#FEFECE" filter="url(#f17n3sztgl4y31)" height="35.0938" rx="12.5" ry="12.5" style="stroke: #A80036; stroke-width: 1.5;" width="57" x="6" y="2243"/><text fill="#000000" font-family="sans-serif" font-size="12" lengthAdjust="spacingAndGlyphs" textLength="37" x="16" y="2265.457">2,0,2,0</text><rect fill="#FEFECE" filter="url(#f17n3sztgl4y31)" height="35.0938" rx="12.5" ry="12.5" style="stroke: #A80036; stroke-width: 1.5;" width="57" x="6" y="2333"/><text fill="#000000" font-family="sans-serif" font-size="12" lengthAdjust="spacingAndGlyphs" textLength="37" x="16" y="2355.457">3,0,2,0</text><rect fill="#FEFECE" filter="url(#f17n3sztgl4y31)" height="35.0938" rx="12.5" ry="12.5" style="stroke: #A80036; stroke-width: 1.5;" width="57" x="7" y="2423"/><text fill="#000000" font-family="sans-serif" font-size="12" lengthAdjust="spacingAndGlyphs" textLength="37" x="17" y="2445.457">3,0,1,0</text><rect fill="#FEFECE" filter="url(#f17n3sztgl4y31)" height="35.0938" rx="12.5" ry="12.5" style="stroke: #A80036; stroke-width: 1.5;" width="57" x="11" y="2513"/><text fill="#000000" font-family="sans-serif" font-size="12" lengthAdjust="spacingAndGlyphs" textLength="37" x="21" y="2535.457">4,0,1,0</text><rect fill="#FEFECE" filter="url(#f17n3sztgl4y31)" height="35.0938" rx="12.5" ry="12.5" style="stroke: #A80036; stroke-width: 1.5;" width="57" x="61" y="2603"/><text fill="#000000" font-family="sans-serif" font-size="12" lengthAdjust="spacingAndGlyphs" textLength="37" x="71" y="2625.457">4,0,0,0</text><rect fill="#FEFECE" filter="url(#f17n3sztgl4y31)" height="35.0938" rx="12.5" ry="12.5" style="stroke: #A80036; stroke-width: 1.5;" width="57" x="127" y="2693"/><text fill="#000000" font-family="sans-serif" font-size="12" lengthAdjust="spacingAndGlyphs" textLength="37" x="137" y="2715.457">5,0,0,0</text><rect fill="#FEFECE" filter="url(#f17n3sztgl4y31)" height="35.0938" rx="12.5" ry="12.5" style="stroke: #A80036; stroke-width: 1.5;" width="57" x="50" y="2693"/><text fill="#000000" font-family="sans-serif" font-size="12" lengthAdjust="spacingAndGlyphs" textLength="37" x="60" y="2715.457">3,0,0,0</text><rect fill="#FEFECE" filter="url(#f17n3sztgl4y31)" height="35.0938" rx="12.5" ry="12.5" style="stroke: #A80036; stroke-width: 1.5;" width="57" x="116" y="2783"/><text fill="#000000" font-family="sans-serif" font-size="12" lengthAdjust="spacingAndGlyphs" textLength="37" x="126" y="2805.457">2,0,0,0</text><rect fill="#FEFECE" filter="url(#f17n3sztgl4y31)" height="35.0938" rx="12.5" ry="12.5" style="stroke: #A80036; stroke-width: 1.5;" width="57" x="173" y="2873"/><text fill="#000000" font-family="sans-serif" font-size="12" lengthAdjust="spacingAndGlyphs" textLength="37" x="183" y="2895.457">1,0,0,0</text><!--link start to null,null,null,null--><path d="M215.5,28.23 C215.5,40.18 215.5,61.38 215.5,77.56 " fill="none" id="start-null,null,null,null" style="stroke: #A80036; stroke-width: 1.0;"/><polygon fill="#A80036" points="215.5,82.84,219.5,73.84,215.5,77.84,211.5,73.84,215.5,82.84" style="stroke: #A80036; stroke-width: 1.0;"/><text fill="#000000" font-family="sans-serif" font-size="11" lengthAdjust="spacingAndGlyphs" textLength="6" x="216.5" y="60.4189">1</text><!--link null,null,null,null to 0,null,null,null--><path d="M215.5,118.05 C215.5,132.1 215.5,152.36 215.5,167.72 " fill="none" id="null,null,null,null-0,null,null,null" style="stroke: #A80036; stroke-width: 1.0;"/><polygon fill="#A80036" points="215.5,172.72,219.5,163.72,215.5,167.72,211.5,163.72,215.5,172.72" style="stroke: #A80036; stroke-width: 1.0;"/><text fill="#000000" font-family="sans-serif" font-size="11" lengthAdjust="spacingAndGlyphs" textLength="6" x="216.5" y="150.4189">1</text><!--link 0,null,null,null to 0,0,null,null--><path d="M215.5,208.05 C215.5,222.1 215.5,242.36 215.5,257.72 " fill="none" id="0,null,null,null-0,0,null,null" style="stroke: #A80036; stroke-width: 1.0;"/><polygon fill="#A80036" points="215.5,262.72,219.5,253.72,215.5,257.72,211.5,253.72,215.5,262.72" style="stroke: #A80036; stroke-width: 1.0;"/><text fill="#000000" font-family="sans-serif" font-size="11" lengthAdjust="spacingAndGlyphs" textLength="6" x="216.5" y="240.4189">1</text><!--link 0,0,null,null to 0,0,null,0--><path d="M215.5,298.05 C215.5,312.1 215.5,332.36 215.5,347.72 " fill="none" id="0,0,null,null-0,0,null,0" style="stroke: #A80036; stroke-width: 1.0;"/><polygon fill="#A80036" points="215.5,352.72,219.5,343.72,215.5,347.72,211.5,343.72,215.5,352.72" style="stroke: #A80036; stroke-width: 1.0;"/><text fill="#000000" font-family="sans-serif" font-size="11" lengthAdjust="spacingAndGlyphs" textLength="6" x="216.5" y="330.4189">1</text><!--link 0,0,null,0 to 0,0,0,0--><path d="M215.5,388.05 C215.5,402.1 215.5,422.36 215.5,437.72 " fill="none" id="0,0,null,0-0,0,0,0" style="stroke: #A80036; stroke-width: 1.0;"/><polygon fill="#A80036" points="215.5,442.72,219.5,433.72,215.5,437.72,211.5,433.72,215.5,442.72" style="stroke: #A80036; stroke-width: 1.0;"/><text fill="#000000" font-family="sans-serif" font-size="11" lengthAdjust="spacingAndGlyphs" textLength="6" x="216.5" y="420.4189">1</text><!--link 0,0,0,0 to 0,1,0,0--><path d="M204.214,478.05 C194.471,492.34 180.343,513.06 169.808,528.51 " fill="none" id="0,0,0,0-0,1,0,0" style="stroke: #A80036; stroke-width: 1.0;"/><polygon fill="#A80036" points="166.939,532.72,175.3117,527.5337,169.7539,528.5877,168.7,523.0298,166.939,532.72" style="stroke: #A80036; stroke-width: 1.0;"/><text fill="#000000" font-family="sans-serif" font-size="11" lengthAdjust="spacingAndGlyphs" textLength="6" x="190.5" y="510.4189">1</text><!--link 0,1,0,0 to 0,1,1,0--><path d="M155.5,568.05 C155.5,582.1 155.5,602.36 155.5,617.72 " fill="none" id="0,1,0,0-0,1,1,0" style="stroke: #A80036; stroke-width: 1.0;"/><polygon fill="#A80036" points="155.5,622.72,159.5,613.72,155.5,617.72,151.5,613.72,155.5,622.72" style="stroke: #A80036; stroke-width: 1.0;"/><text fill="#000000" font-family="sans-serif" font-size="11" lengthAdjust="spacingAndGlyphs" textLength="6" x="156.5" y="600.4189">1</text><!--link 0,1,1,0 to 0,1,2,0--><path d="M155.5,658.05 C155.5,672.1 155.5,692.36 155.5,707.72 " fill="none" id="0,1,1,0-0,1,2,0" style="stroke: #A80036; stroke-width: 1.0;"/><polygon fill="#A80036" points="155.5,712.72,159.5,703.72,155.5,707.72,151.5,703.72,155.5,712.72" style="stroke: #A80036; stroke-width: 1.0;"/><text fill="#000000" font-family="sans-serif" font-size="11" lengthAdjust="spacingAndGlyphs" textLength="6" x="156.5" y="690.4189">1</text><!--link 0,1,2,0 to 0,1,3,0--><path d="M155.5,748.05 C155.5,762.1 155.5,782.36 155.5,797.72 " fill="none" id="0,1,2,0-0,1,3,0" style="stroke: #A80036; stroke-width: 1.0;"/><polygon fill="#A80036" points="155.5,802.72,159.5,793.72,155.5,797.72,151.5,793.72,155.5,802.72" style="stroke: #A80036; stroke-width: 1.0;"/><text fill="#000000" font-family="sans-serif" font-size="11" lengthAdjust="spacingAndGlyphs" textLength="6" x="156.5" y="780.4189">1</text><!--link 0,1,3,0 to 0,1,3,1--><path d="M155.5,838.05 C155.5,852.1 155.5,872.36 155.5,887.72 " fill="none" id="0,1,3,0-0,1,3,1" style="stroke: #A80036; stroke-width: 1.0;"/><polygon fill="#A80036" points="155.5,892.72,159.5,883.72,155.5,887.72,151.5,883.72,155.5,892.72" style="stroke: #A80036; stroke-width: 1.0;"/><text fill="#000000" font-family="sans-serif" font-size="11" lengthAdjust="spacingAndGlyphs" textLength="6" x="156.5" y="870.4189">1</text><!--link 0,1,3,1 to 0,1,3,2--><path d="M155.5,928.05 C155.5,942.1 155.5,962.36 155.5,977.72 " fill="none" id="0,1,3,1-0,1,3,2" style="stroke: #A80036; stroke-width: 1.0;"/><polygon fill="#A80036" points="155.5,982.72,159.5,973.72,155.5,977.72,151.5,973.72,155.5,982.72" style="stroke: #A80036; stroke-width: 1.0;"/><text fill="#000000" font-family="sans-serif" font-size="11" lengthAdjust="spacingAndGlyphs" textLength="6" x="156.5" y="960.4189">1</text><!--link 0,1,3,2 to 0,1,3,3--><path d="M155.312,1018.05 C155.152,1032.1 154.922,1052.36 154.748,1067.72 " fill="none" id="0,1,3,2-0,1,3,3" style="stroke: #A80036; stroke-width: 1.0;"/><polygon fill="#A80036" points="154.691,1072.72,158.7936,1063.7663,154.7482,1067.7203,150.7941,1063.6749,154.691,1072.72" style="stroke: #A80036; stroke-width: 1.0;"/><text fill="#000000" font-family="sans-serif" font-size="11" lengthAdjust="spacingAndGlyphs" textLength="6" x="156.5" y="1050.4189">1</text><!--link 0,1,3,3 to 0,1,3,4--><path d="M153.56,1108.05 C152.761,1122.1 151.61,1142.36 150.738,1157.72 " fill="none" id="0,1,3,3-0,1,3,4" style="stroke: #A80036; stroke-width: 1.0;"/><polygon fill="#A80036" points="150.453,1162.72,154.9608,1153.9633,150.7387,1157.7282,146.9739,1153.5061,150.453,1162.72" style="stroke: #A80036; stroke-width: 1.0;"/><text fill="#000000" font-family="sans-serif" font-size="11" lengthAdjust="spacingAndGlyphs" textLength="6" x="153.5" y="1140.4189">1</text><!--link 0,1,3,4 to 0,1,4,4--><path d="M145.55,1198.05 C142.198,1212.1 137.364,1232.36 133.698,1247.72 " fill="none" id="0,1,3,4-0,1,4,4" style="stroke: #A80036; stroke-width: 1.0;"/><polygon fill="#A80036" points="132.504,1252.72,138.5005,1244.9071,133.675,1247.8591,130.723,1243.0335,132.504,1252.72" style="stroke: #A80036; stroke-width: 1.0;"/><text fill="#000000" font-family="sans-serif" font-size="11" lengthAdjust="spacingAndGlyphs" textLength="6" x="141.5" y="1230.4189">1</text><!--link 0,1,4,4 to 0,1,5,4--><path d="M123.233,1288.05 C118.764,1302.1 112.318,1322.36 107.431,1337.72 " fill="none" id="0,1,4,4-0,1,5,4" style="stroke: #A80036; stroke-width: 1.0;"/><polygon fill="#A80036" points="105.8382,1342.72,112.3762,1335.3542,107.3526,1337.9548,104.752,1332.9312,105.8382,1342.72" style="stroke: #A80036; stroke-width: 1.0;"/><text fill="#000000" font-family="sans-serif" font-size="11" lengthAdjust="spacingAndGlyphs" textLength="6" x="117.5" y="1320.4189">1</text><!--link 0,1,5,4 to 0,0,5,4--><path d="M100.5,1378.05 C100.5,1392.1 100.5,1412.36 100.5,1427.72 " fill="none" id="0,1,5,4-0,0,5,4" style="stroke: #A80036; stroke-width: 1.0;"/><polygon fill="#A80036" points="100.5,1432.72,104.5,1423.72,100.5,1427.72,96.5,1423.72,100.5,1432.72" style="stroke: #A80036; stroke-width: 1.0;"/><text fill="#000000" font-family="sans-serif" font-size="11" lengthAdjust="spacingAndGlyphs" textLength="12" x="101.5" y="1410.4189">21</text><!--link 0,0,5,4 to 0,0,5,3--><path d="M100.5,1468.05 C100.5,1482.1 100.5,1502.36 100.5,1517.72 " fill="none" id="0,0,5,4-0,0,5,3" style="stroke: #A80036; stroke-width: 1.0;"/><polygon fill="#A80036" points="100.5,1522.72,104.5,1513.72,100.5,1517.72,96.5,1513.72,100.5,1522.72" style="stroke: #A80036; stroke-width: 1.0;"/><text fill="#000000" font-family="sans-serif" font-size="11" lengthAdjust="spacingAndGlyphs" textLength="12" x="101.5" y="1500.4189">21</text><!--link 0,0,5,3 to 0,1,5,3--><path d="M93.3525,1558.05 C87.2346,1572.22 78.3869,1592.71 71.7336,1608.12 " fill="none" id="0,0,5,3-0,1,5,3" style="stroke: #A80036; stroke-width: 1.0;"/><polygon fill="#A80036" points="69.7447,1612.72,76.9892,1606.0479,71.7299,1608.131,69.6468,1602.8716,69.7447,1612.72" style="stroke: #A80036; stroke-width: 1.0;"/><text fill="#000000" font-family="sans-serif" font-size="11" lengthAdjust="spacingAndGlyphs" textLength="12" x="85.5" y="1590.4189">21</text><!--link 0,1,5,3 to 0,0,5,3--><path d="M62.4207,1612.61 C62.9383,1602.23 64.6477,1588.88 69.5,1578 C71.9873,1572.42 75.5986,1567.04 79.4844,1562.21 " fill="none" id="0,1,5,3-0,0,5,3" style="stroke: #A80036; stroke-width: 1.0;"/><polygon fill="#A80036" points="82.7943,1558.28,73.9319,1562.5763,79.5687,1562.1004,80.0446,1567.7372,82.7943,1558.28" style="stroke: #A80036; stroke-width: 1.0;"/><text fill="#000000" font-family="sans-serif" font-size="11" lengthAdjust="spacingAndGlyphs" textLength="6" x="70.5" y="1590.4189">1</text><!--link 0,1,5,3 to 0,1,5,4--><path d="M59.6015,1612.85 C54.237,1578.53 44.7551,1497.73 61.5,1433 C66.2084,1414.8 76.5473,1396.21 85.3973,1382.56 " fill="none" id="0,1,5,3-0,1,5,4" style="stroke: #A80036; stroke-width: 1.0;"/><polygon fill="#A80036" points="88.3313,1378.12,80.031,1383.4214,85.5737,1382.2908,86.7043,1387.8335,88.3313,1378.12" style="stroke: #A80036; stroke-width: 1.0;"/><text fill="#000000" font-family="sans-serif" font-size="11" lengthAdjust="spacingAndGlyphs" textLength="12" x="54.5" y="1500.4189">20</text><!--link 0,0,5,3 to 0,0,5,2--><path d="M107.836,1558.05 C114.115,1572.22 123.195,1592.71 130.023,1608.12 " fill="none" id="0,0,5,3-0,0,5,2" style="stroke: #A80036; stroke-width: 1.0;"/><polygon fill="#A80036" points="132.065,1612.72,132.0707,1602.8711,130.037,1608.1498,124.7583,1606.116,132.065,1612.72" style="stroke: #A80036; stroke-width: 1.0;"/><text fill="#000000" font-family="sans-serif" font-size="11" lengthAdjust="spacingAndGlyphs" textLength="6" x="123.5" y="1590.4189">1</text><!--link 0,0,5,2 to 0,1,5,2--><path d="M142.509,1648.05 C145.063,1662.1 148.747,1682.36 151.54,1697.72 " fill="none" id="0,0,5,2-0,1,5,2" style="stroke: #A80036; stroke-width: 1.0;"/><polygon fill="#A80036" points="152.45,1702.72,154.7652,1693.1471,151.5503,1697.8016,146.8958,1694.5867,152.45,1702.72" style="stroke: #A80036; stroke-width: 1.0;"/><text fill="#000000" font-family="sans-serif" font-size="11" lengthAdjust="spacingAndGlyphs" textLength="6" x="149.5" y="1680.4189">1</text><!--link 0,1,5,2 to 0,0,5,2--><path d="M143.489,1702.86 C139.86,1696.89 136.349,1689.92 134.5,1683 C131.957,1673.48 132.511,1662.66 133.975,1653.41 " fill="none" id="0,1,5,2-0,0,5,2" style="stroke: #A80036; stroke-width: 1.0;"/><polygon fill="#A80036" points="134.868,1648.45,129.3371,1656.5992,133.9824,1653.3709,137.2106,1658.0162,134.868,1648.45" style="stroke: #A80036; stroke-width: 1.0;"/><text fill="#000000" font-family="sans-serif" font-size="11" lengthAdjust="spacingAndGlyphs" textLength="6" x="135.5" y="1680.4189">1</text><!--link 0,0,5,2 to 0,0,5,1--><path d="M128.026,1648.05 C118.121,1662.34 103.7574,1683.06 93.0469,1698.51 " fill="none" id="0,0,5,2-0,0,5,1" style="stroke: #A80036; stroke-width: 1.0;"/><polygon fill="#A80036" points="90.1296,1702.72,98.5395,1697.5942,92.9742,1698.608,91.9603,1693.0428,90.1296,1702.72" style="stroke: #A80036; stroke-width: 1.0;"/><text fill="#000000" font-family="sans-serif" font-size="11" lengthAdjust="spacingAndGlyphs" textLength="6" x="114.5" y="1680.4189">1</text><!--link 0,0,5,1 to 0,1,5,1--><path d="M92.2296,1738.15 C96.9862,1744.23 102.1994,1751.27 106.5,1758 C112.666,1767.65 118.669,1778.86 123.443,1788.35 " fill="none" id="0,0,5,1-0,1,5,1" style="stroke: #A80036; stroke-width: 1.0;"/><polygon fill="#A80036" points="125.683,1792.86,125.2534,1783.0205,123.4549,1788.3839,118.0916,1786.5854,125.683,1792.86" style="stroke: #A80036; stroke-width: 1.0;"/><text fill="#000000" font-family="sans-serif" font-size="11" lengthAdjust="spacingAndGlyphs" textLength="6" x="116.5" y="1770.4189">1</text><!--link 0,1,5,1 to 0,0,5,1--><path d="M114.883,1792.88 C109.084,1787.02 103.0298,1780.11 98.5,1773 C92.6176,1763.77 88.0056,1752.54 84.7001,1742.92 " fill="none" id="0,1,5,1-0,0,5,1" style="stroke: #A80036; stroke-width: 1.0;"/><polygon fill="#A80036" points="83.0909,1738.06,82.122,1747.8611,84.6623,1742.8067,89.7167,1745.3469,83.0909,1738.06" style="stroke: #A80036; stroke-width: 1.0;"/><text fill="#000000" font-family="sans-serif" font-size="11" lengthAdjust="spacingAndGlyphs" textLength="6" x="99.5" y="1770.4189">1</text><!--link 0,0,5,1 to 0,0,5,0--><path d="M70.5589,1738.27 C67.9556,1744.37 65.2779,1751.38 63.5,1758 C60.9554,1767.47 59.3098,1778.18 58.2584,1787.37 " fill="none" id="0,0,5,1-0,0,5,0" style="stroke: #A80036; stroke-width: 1.0;"/><polygon fill="#A80036" points="57.7058,1792.59,62.6348,1784.0633,58.2344,1787.618,54.6796,1783.2176,57.7058,1792.59" style="stroke: #A80036; stroke-width: 1.0;"/><text fill="#000000" font-family="sans-serif" font-size="11" lengthAdjust="spacingAndGlyphs" textLength="6" x="64.5" y="1770.4189">1</text><!--link 0,0,5,0 to 0,1,5,0--><path d="M70.2296,1828.15 C74.9862,1834.23 80.1994,1841.27 84.5,1848 C90.6665,1857.65 96.6695,1868.86 101.4432,1878.35 " fill="none" id="0,0,5,0-0,1,5,0" style="stroke: #A80036; stroke-width: 1.0;"/><polygon fill="#A80036" points="103.6832,1882.86,103.254,1873.0205,101.4553,1878.3838,96.092,1876.5851,103.6832,1882.86" style="stroke: #A80036; stroke-width: 1.0;"/><text fill="#000000" font-family="sans-serif" font-size="11" lengthAdjust="spacingAndGlyphs" textLength="6" x="94.5" y="1860.4189">1</text><!--link 0,1,5,0 to 0,0,5,0--><path d="M92.8826,1882.88 C87.0842,1877.02 81.0298,1870.11 76.5,1863 C70.6176,1853.77 66.0056,1842.54 62.7001,1832.92 " fill="none" id="0,1,5,0-0,0,5,0" style="stroke: #A80036; stroke-width: 1.0;"/><polygon fill="#A80036" points="61.0909,1828.06,60.122,1837.8611,62.6623,1832.8067,67.7167,1835.3469,61.0909,1828.06" style="stroke: #A80036; stroke-width: 1.0;"/><text fill="#000000" font-family="sans-serif" font-size="11" lengthAdjust="spacingAndGlyphs" textLength="6" x="77.5" y="1860.4189">1</text><!--link 0,0,5,0 to 0,0,4,0--><path d="M48.5589,1828.27 C45.9556,1834.37 43.2779,1841.38 41.5,1848 C38.9554,1857.47 37.3098,1868.18 36.2584,1877.37 " fill="none" id="0,0,5,0-0,0,4,0" style="stroke: #A80036; stroke-width: 1.0;"/><polygon fill="#A80036" points="35.7058,1882.59,40.6348,1874.0633,36.2344,1877.618,32.6796,1873.2176,35.7058,1882.59" style="stroke: #A80036; stroke-width: 1.0;"/><text fill="#000000" font-family="sans-serif" font-size="11" lengthAdjust="spacingAndGlyphs" textLength="6" x="42.5" y="1860.4189">1</text><!--link 0,0,4,0 to 1,0,4,0--><path d="M34.5,1918.052 C34.5,1932.098 34.5,1952.357 34.5,1967.717 " fill="none" id="0,0,4,0-1,0,4,0" style="stroke: #A80036; stroke-width: 1.0;"/><polygon fill="#A80036" points="34.5,1972.723,38.5,1963.723,34.5,1967.723,30.5,1963.723,34.5,1972.723" style="stroke: #A80036; stroke-width: 1.0;"/><text fill="#000000" font-family="sans-serif" font-size="11" lengthAdjust="spacingAndGlyphs" textLength="6" x="35.5" y="1950.4189">1</text><!--link 1,0,4,0 to 1,0,3,0--><path d="M34.5,2008.052 C34.5,2022.098 34.5,2042.357 34.5,2057.717 " fill="none" id="1,0,4,0-1,0,3,0" style="stroke: #A80036; stroke-width: 1.0;"/><polygon fill="#A80036" points="34.5,2062.723,38.5,2053.723,34.5,2057.723,30.5,2053.723,34.5,2062.723" style="stroke: #A80036; stroke-width: 1.0;"/><text fill="#000000" font-family="sans-serif" font-size="11" lengthAdjust="spacingAndGlyphs" textLength="6" x="35.5" y="2040.4189">1</text><!--link 1,0,3,0 to 2,0,3,0--><path d="M34.5,2098.052 C34.5,2112.098 34.5,2132.357 34.5,2147.717 " fill="none" id="1,0,3,0-2,0,3,0" style="stroke: #A80036; stroke-width: 1.0;"/><polygon fill="#A80036" points="34.5,2152.723,38.5,2143.723,34.5,2147.723,30.5,2143.723,34.5,2152.723" style="stroke: #A80036; stroke-width: 1.0;"/><text fill="#000000" font-family="sans-serif" font-size="11" lengthAdjust="spacingAndGlyphs" textLength="6" x="35.5" y="2130.4189">1</text><!--link 2,0,3,0 to 2,0,2,0--><path d="M34.5,2188.052 C34.5,2202.098 34.5,2222.357 34.5,2237.717 " fill="none" id="2,0,3,0-2,0,2,0" style="stroke: #A80036; stroke-width: 1.0;"/><polygon fill="#A80036" points="34.5,2242.723,38.5,2233.723,34.5,2237.723,30.5,2233.723,34.5,2242.723" style="stroke: #A80036; stroke-width: 1.0;"/><text fill="#000000" font-family="sans-serif" font-size="11" lengthAdjust="spacingAndGlyphs" textLength="6" x="35.5" y="2220.4189">1</text><!--link 2,0,2,0 to 3,0,2,0--><path d="M34.5,2278.052 C34.5,2292.098 34.5,2312.357 34.5,2327.717 " fill="none" id="2,0,2,0-3,0,2,0" style="stroke: #A80036; stroke-width: 1.0;"/><polygon fill="#A80036" points="34.5,2332.723,38.5,2323.723,34.5,2327.723,30.5,2323.723,34.5,2332.723" style="stroke: #A80036; stroke-width: 1.0;"/><text fill="#000000" font-family="sans-serif" font-size="11" lengthAdjust="spacingAndGlyphs" textLength="6" x="35.5" y="2310.4189">1</text><!--link 3,0,2,0 to 3,0,1,0--><path d="M34.6881,2368.052 C34.8477,2382.098 35.0779,2402.357 35.2525,2417.717 " fill="none" id="3,0,2,0-3,0,1,0" style="stroke: #A80036; stroke-width: 1.0;"/><polygon fill="#A80036" points="35.3094,2422.723,39.2063,2413.6779,35.2523,2417.7233,31.2068,2413.7693,35.3094,2422.723" style="stroke: #A80036; stroke-width: 1.0;"/><text fill="#000000" font-family="sans-serif" font-size="11" lengthAdjust="spacingAndGlyphs" textLength="6" x="36.5" y="2400.4189">1</text><!--link 3,0,1,0 to 4,0,1,0--><path d="M36.2524,2458.052 C36.8908,2472.098 37.8117,2492.357 38.5099,2507.717 " fill="none" id="3,0,1,0-4,0,1,0" style="stroke: #A80036; stroke-width: 1.0;"/><polygon fill="#A80036" points="38.7374,2512.723,42.3244,2503.5506,38.5103,2507.7282,34.3327,2503.914,38.7374,2512.723" style="stroke: #A80036; stroke-width: 1.0;"/><text fill="#000000" font-family="sans-serif" font-size="11" lengthAdjust="spacingAndGlyphs" textLength="6" x="39.5" y="2490.4189">1</text><!--link 4,0,1,0 to 4,0,0,0--><path d="M48.9046,2548.052 C56.9545,2562.22 68.5962,2582.709 77.3506,2598.117 " fill="none" id="4,0,1,0-4,0,0,0" style="stroke: #A80036; stroke-width: 1.0;"/><polygon fill="#A80036" points="79.9676,2602.723,78.9994,2592.9218,77.4976,2598.3757,72.0437,2596.8739,79.9676,2602.723" style="stroke: #A80036; stroke-width: 1.0;"/><text fill="#000000" font-family="sans-serif" font-size="11" lengthAdjust="spacingAndGlyphs" textLength="6" x="68.5" y="2580.4189">1</text><!--link 4,0,0,0 to 5,0,0,0--><path d="M100.0976,2638.051 C106.823,2648.307 115.858,2661.645 124.5,2673 C128.512,2678.272 133.03,2683.799 137.35,2688.91 " fill="none" id="4,0,0,0-5,0,0,0" style="stroke: #A80036; stroke-width: 1.0;"/><polygon fill="#A80036" points="140.604,2692.728,137.8076,2683.2845,137.3596,2688.9236,131.7205,2688.4755,140.604,2692.728" style="stroke: #A80036; stroke-width: 1.0;"/><text fill="#000000" font-family="sans-serif" font-size="11" lengthAdjust="spacingAndGlyphs" textLength="6" x="125.5" y="2670.4189">5</text><!--link 5,0,0,0 to 4,0,0,0--><path d="M149.763,2692.752 C145.657,2682.172 139.454,2668.557 131.5,2658 C127.06,2652.107 121.531,2646.482 115.958,2641.489 " fill="none" id="5,0,0,0-4,0,0,0" style="stroke: #A80036; stroke-width: 1.0;"/><polygon fill="#A80036" points="112.105,2638.138,116.2708,2647.0625,115.8777,2641.4193,121.5209,2641.0262,112.105,2638.138" style="stroke: #A80036; stroke-width: 1.0;"/><text fill="#000000" font-family="sans-serif" font-size="11" lengthAdjust="spacingAndGlyphs" textLength="6" x="142.5" y="2670.4189">5</text><!--link 4,0,0,0 to 3,0,0,0--><path d="M71.2069,2638.038 C66.0902,2643.795 61.1948,2650.664 58.5,2658 C54.8051,2668.058 58.144,2679.146 63.0813,2688.448 " fill="none" id="4,0,0,0-3,0,0,0" style="stroke: #A80036; stroke-width: 1.0;"/><polygon fill="#A80036" points="65.6097,2692.859,64.6033,2683.0617,63.1228,2688.5214,57.6631,2687.0408,65.6097,2692.859" style="stroke: #A80036; stroke-width: 1.0;"/><text fill="#000000" font-family="sans-serif" font-size="11" lengthAdjust="spacingAndGlyphs" textLength="6" x="59.5" y="2670.4189">5</text><!--link 3,0,0,0 to 4,0,0,0--><path d="M80.5971,2692.723 C82.3611,2678.611 84.8943,2658.346 86.8078,2643.038 " fill="none" id="3,0,0,0-4,0,0,0" style="stroke: #A80036; stroke-width: 1.0;"/><polygon fill="#A80036" points="87.431,2638.052,82.3435,2646.4851,86.8096,2643.0132,90.2815,2647.4793,87.431,2638.052" style="stroke: #A80036; stroke-width: 1.0;"/><text fill="#000000" font-family="sans-serif" font-size="11" lengthAdjust="spacingAndGlyphs" textLength="6" x="86.5" y="2670.4189">4</text><!--link 3,0,0,0 to 2,0,0,0--><path d="M85.8803,2728.054 C90.944,2738.556 98.2279,2752.158 106.5,2763 C110.745,2768.563 115.846,2774.061 120.913,2779.036 " fill="none" id="3,0,0,0-2,0,0,0" style="stroke: #A80036; stroke-width: 1.0;"/><polygon fill="#A80036" points="124.766,2782.73,121.0381,2773.6139,121.157,2779.2695,115.5013,2779.3884,124.766,2782.73" style="stroke: #A80036; stroke-width: 1.0;"/><text fill="#000000" font-family="sans-serif" font-size="11" lengthAdjust="spacingAndGlyphs" textLength="6" x="107.5" y="2760.4189">5</text><!--link 2,0,0,0 to 3,0,0,0--><path d="M136.468,2782.531 C131.177,2772.118 123.724,2758.762 115.5,2748 C111.221,2742.401 106.11,2736.822 101.0722,2731.771 " fill="none" id="2,0,0,0-3,0,0,0" style="stroke: #A80036; stroke-width: 1.0;"/><polygon fill="#A80036" points="97.249,2728.019,100.8713,2737.1775,100.8178,2731.5209,106.4744,2731.4675,97.249,2728.019" style="stroke: #A80036; stroke-width: 1.0;"/><text fill="#000000" font-family="sans-serif" font-size="11" lengthAdjust="spacingAndGlyphs" textLength="6" x="126.5" y="2760.4189">4</text><!--link 2,0,0,0 to 1,0,0,0--><path d="M145.213,2818.3476 C146.331,2828.967 149.042,2842.5893 155.5,2853 C159.342,2859.1942 164.627,2864.7756 170.248,2869.6034 " fill="none" id="2,0,0,0-1,0,0,0" style="stroke: #A80036; stroke-width: 1.0;"/><polygon fill="#A80036" points="174.18,2872.8235,169.7503,2864.027,170.3113,2869.656,164.6823,2870.217,174.18,2872.8235" style="stroke: #A80036; stroke-width: 1.0;"/><text fill="#000000" font-family="sans-serif" font-size="11" lengthAdjust="spacingAndGlyphs" textLength="6" x="156.5" y="2850.4189">5</text><!--link 1,0,0,0 to 2,0,0,0--><path d="M190.633,2872.7229 C181.413,2858.4887 168.138,2837.993 158.193,2822.6394 " fill="none" id="1,0,0,0-2,0,0,0" style="stroke: #A80036; stroke-width: 1.0;"/><polygon fill="#A80036" points="155.221,2818.0521,156.7576,2827.7804,157.9397,2822.2484,163.4716,2823.4305,155.221,2818.0521" style="stroke: #A80036; stroke-width: 1.0;"/><text fill="#000000" font-family="sans-serif" font-size="11" lengthAdjust="spacingAndGlyphs" textLength="6" x="177.5" y="2850.4189">4</text><!--link 0,0,0,0 to 1,0,0,0--><path d="M215.5,478.04 C215.5,495.73 215.5,524.6 215.5,549.5 C215.5,549.5 215.5,549.5 215.5,2801.5 C215.5,2824.2118 210.896,2849.8158 206.968,2867.5251 " fill="none" id="0,0,0,0-1,0,0,0" style="stroke: #A80036; stroke-width: 1.0;"/><polygon fill="#A80036" points="205.777,2872.7557,211.6762,2864.869,206.8876,2867.8806,203.876,2863.092,205.777,2872.7557" style="stroke: #A80036; stroke-width: 1.0;"/><text fill="#000000" font-family="sans-serif" font-size="11" lengthAdjust="spacingAndGlyphs" textLength="6" x="216.5" y="1680.4189">4</text><!--link 1,0,0,0 to 0,0,0,0--><path d="M220.147,2872.9529 C236.438,2856.5876 257.5,2829.931 257.5,2801.5 C257.5,549.5 257.5,549.5 257.5,549.5 C257.5,524.69 243.731,499.44 231.96,482.39 " fill="none" id="1,0,0,0-0,0,0,0" style="stroke: #A80036; stroke-width: 1.0;"/><polygon fill="#A80036" points="229.02,478.23,230.9722,487.8834,231.9161,482.3059,237.4936,483.2497,229.02,478.23" style="stroke: #A80036; stroke-width: 1.0;"/><text fill="#000000" font-family="sans-serif" font-size="11" lengthAdjust="spacingAndGlyphs" textLength="6" x="258.5" y="1680.4189">5</text><!--
@startuml
(*) - -> [1] "null,null,null,null"
"null,null,null,null" - -> [1] "0,null,null,null"
"0,null,null,null" - -> [1] "0,0,null,null"
"0,0,null,null" - -> [1] "0,0,null,0"
"0,0,null,0" - -> [1] "0,0,0,0"
"0,0,0,0" - -> [1] "0,1,0,0"
"0,1,0,0" - -> [1] "0,1,1,0"
"0,1,1,0" - -> [1] "0,1,2,0"
"0,1,2,0" - -> [1] "0,1,3,0"
"0,1,3,0" - -> [1] "0,1,3,1"
"0,1,3,1" - -> [1] "0,1,3,2"
"0,1,3,2" - -> [1] "0,1,3,3"
"0,1,3,3" - -> [1] "0,1,3,4"
"0,1,3,4" - -> [1] "0,1,4,4"
"0,1,4,4" - -> [1] "0,1,5,4"
"0,1,5,4" - -> [21] "0,0,5,4"
"0,0,5,4" - -> [21] "0,0,5,3"
"0,0,5,3" - -> [21] "0,1,5,3"
"0,1,5,3" - -> [20] "0,1,5,4"
"0,1,5,3" - -> [1] "0,0,5,3"
"0,0,5,3" - -> [1] "0,0,5,2"
"0,0,5,2" - -> [1] "0,1,5,2"
"0,1,5,2" - -> [1] "0,0,5,2"
"0,0,5,2" - -> [1] "0,0,5,1"
"0,0,5,1" - -> [1] "0,1,5,1"
"0,1,5,1" - -> [1] "0,0,5,1"
"0,0,5,1" - -> [1] "0,0,5,0"
"0,0,5,0" - -> [1] "0,1,5,0"
"0,1,5,0" - -> [1] "0,0,5,0"
"0,0,5,0" - -> [1] "0,0,4,0"
"0,0,4,0" - -> [1] "1,0,4,0"
"1,0,4,0" - -> [1] "1,0,3,0"
"1,0,3,0" - -> [1] "2,0,3,0"
"2,0,3,0" - -> [1] "2,0,2,0"
"2,0,2,0" - -> [1] "3,0,2,0"
"3,0,2,0" - -> [1] "3,0,1,0"
"3,0,1,0" - -> [1] "4,0,1,0"
"4,0,1,0" - -> [1] "4,0,0,0"
"4,0,0,0" - -> [5] "5,0,0,0"
"5,0,0,0" - -> [5] "4,0,0,0"
"4,0,0,0" - -> [5] "3,0,0,0"
"3,0,0,0" - -> [5] "2,0,0,0"
"2,0,0,0" - -> [5] "1,0,0,0"
"0,0,0,0" - -> [4] "1,0,0,0"
"1,0,0,0" - -> [4] "2,0,0,0"
"2,0,0,0" - -> [4] "3,0,0,0"
"3,0,0,0" - -> [4] "4,0,0,0"
"1,0,0,0" - -> [5] "0,0,0,0" #red
@enduml

PlantUML version 1.2018.09(Fri Jul 27 12:58:18 EDT 2018)
(EPL source distribution)
Java Runtime: Java(TM) SE Runtime Environment
JVM: Java HotSpot(TM) 64-Bit Server VM
Java Version: 1.8.0_181-b13
Operating System: Windows 10
OS Version: 10.0
Default Encoding: Cp1252
Language: en
Country: US
--></g></svg>