<?xml version="1.0" encoding="UTF-8" standalone="no"?><svg xmlns="http://www.w3.org/2000/svg" xmlns:xlink="http://www.w3.org/1999/xlink" contentScriptType="application/ecmascript" contentStyleType="text/css" height="759px" preserveAspectRatio="none" style="width:138px;height:759px;" version="1.1" viewBox="0 0 138 759" width="138px" zoomAndPan="magnify"><defs><filter height="300%" id="f18gyeslu6gloz" width="300%" x="-1" y="-1"><feGaussianBlur result="blurOut" stdDeviation="2.0"/><feColorMatrix in="blurOut" result="blurOut2" type="matrix" values="0 0 0 0 0 0 0 0 0 0 0 0 0 0 0 0 0 0 .4 0"/><feOffset dx="4.0" dy="4.0" in="blurOut2" result="blurOut3"/><feBlend in="SourceGraphic" in2="blurOut3" mode="normal"/></filter></defs><g><ellipse cx="72.5" cy="18" fill="#000000" filter="url(#f18gyeslu6gloz)" rx="10" ry="10" style="stroke: none; stroke-width: 1.0;"/><rect fill="#FEFECE" filter="url(#f18gyeslu6gloz)" height="35.0938" rx="12.5" ry="12.5" style="stroke: #A80036; stroke-width: 1.5;" width="63" x="41" y="83"/><text fill="#000000" font-family="sans-serif" font-size="12" lengthAdjust="spacingAndGlyphs" textLength="43" x="51" y="105.457">null,null</text><rect fill="#FEFECE" filter="url(#f18gyeslu6gloz)" height="35.0938" rx="12.5" ry="12.5" style="stroke: #A80036; stroke-width: 1.5;" width="50" x="47.5" y="173"/><text fill="#000000" font-family="sans-serif" font-size="12" lengthAdjust="spacingAndGlyphs" textLength="30" x="57.5" y="195.457">0,null</text><rect fill="#FF0000" filter="url(#f18gyeslu6gloz)" height="35.0938" rx="12.5" ry="12.5" style="stroke: #A80036; stroke-width: 1.5;" width="37" x="54" y="263"/><text fill="#000000" font-family="sans-serif" font-size="12" lengthAdjust="spacingAndGlyphs" textLength="17" x="64" y="285.457">0,0</text><rect fill="#FEFECE" filter="url(#f18gyeslu6gloz)" height="35.0938" rx="12.5" ry="12.5" style="stroke: #A80036; stroke-width: 1.5;" width="37" x="6" y="353"/><text fill="#000000" font-family="sans-serif" font-size="12" lengthAdjust="spacingAndGlyphs" textLength="17" x="16" y="375.457">0,1</text><rect fill="#FEFECE" filter="url(#f18gyeslu6gloz)" height="35.0938" rx="12.5" ry="12.5" style="stroke: #A80036; stroke-width: 1.5;" width="37" x="90" y="353"/><text fill="#000000" font-family="sans-serif" font-size="12" lengthAdjust="spacingAndGlyphs" textLength="17" x="100" y="375.457">1,0</text><rect fill="#FEFECE" filter="url(#f18gyeslu6gloz)" height="35.0938" rx="12.5" ry="12.5" style="stroke: #A80036; stroke-width: 1.5;" width="37" x="89" y="443"/><text fill="#000000" font-family="sans-serif" font-size="12" lengthAdjust="spacingAndGlyphs" textLength="17" x="99" y="465.457">2,0</text><rect fill="#FEFECE" filter="url(#f18gyeslu6gloz)" height="35.0938" rx="12.5" ry="12.5" style="stroke: #A80036; stroke-width: 1.5;" width="37" x="89" y="533"/><text fill="#000000" font-family="sans-serif" font-size="12" lengthAdjust="spacingAndGlyphs" textLength="17" x="99" y="555.457">3,0</text><rect fill="#FEFECE" filter="url(#f18gyeslu6gloz)" height="35.0938" rx="12.5" ry="12.5" style="stroke: #A80036; stroke-width: 1.5;" width="37" x="89" y="623"/><text fill="#000000" font-family="sans-serif" font-size="12" lengthAdjust="spacingAndGlyphs" textLength="17" x="99" y="645.457">4,0</text><rect fill="#FEFECE" filter="url(#f18gyeslu6gloz)" height="35.0938" rx="12.5" ry="12.5" style="stroke: #A80036; stroke-width: 1.5;" width="37" x="89" y="713"/><text fill="#000000" font-family="sans-serif" font-size="12" lengthAdjust="spacingAndGlyphs" textLength="17" x="99" y="735.457">5,0</text><!--link start to null,null--><path d="M72.5,28.234 C72.5,40.182 72.5,61.38 72.5,77.561 " fill="none" id="start-null,null" style="stroke: #A80036; stroke-width: 1.0;"/><polygon fill="#A80036" points="72.5,82.836,76.5,73.836,72.5,77.836,68.5,73.836,72.5,82.836" style="stroke: #A80036; stroke-width: 1.0;"/><text fill="#000000" font-family="sans-serif" font-size="11" lengthAdjust="spacingAndGlyphs" textLength="6" x="73.5" y="60.4189">1</text><!--link null,null to 0,null--><path d="M72.5,118.052 C72.5,132.098 72.5,152.357 72.5,167.717 " fill="none" id="null,null-0,null" style="stroke: #A80036; stroke-width: 1.0;"/><polygon fill="#A80036" points="72.5,172.723,76.5,163.723,72.5,167.723,68.5,163.723,72.5,172.723" style="stroke: #A80036; stroke-width: 1.0;"/><text fill="#000000" font-family="sans-serif" font-size="11" lengthAdjust="spacingAndGlyphs" textLength="6" x="73.5" y="150.4189">1</text><!--link 0,null to 0,0--><path d="M72.5,208.052 C72.5,222.098 72.5,242.357 72.5,257.717 " fill="none" id="0,null-0,0" style="stroke: #A80036; stroke-width: 1.0;"/><polygon fill="#A80036" points="72.5,262.723,76.5,253.723,72.5,257.723,68.5,253.723,72.5,262.723" style="stroke: #A80036; stroke-width: 1.0;"/><text fill="#000000" font-family="sans-serif" font-size="11" lengthAdjust="spacingAndGlyphs" textLength="6" x="73.5" y="240.4189">1</text><!--link 0,0 to 0,1--><path d="M53.947,287.618 C40.3393,293.194 22.8395,302.898 14.5,318 C9.4759,327.098 10.9175,338.318 14.059,347.96 " fill="none" id="0,0-0,1" style="stroke: #A80036; stroke-width: 1.0;"/><polygon fill="#A80036" points="15.8315,352.839,16.5156,343.0139,14.1231,348.1399,8.9971,345.7474,15.8315,352.839" style="stroke: #A80036; stroke-width: 1.0;"/><text fill="#000000" font-family="sans-serif" font-size="11" lengthAdjust="spacingAndGlyphs" textLength="12" x="15.5" y="330.4189">25</text><!--link 0,1 to 0,0--><path d="M33.6511,352.723 C41.4153,338.489 52.5947,317.993 60.9694,302.639 " fill="none" id="0,1-0,0" style="stroke: #A80036; stroke-width: 1.0;"/><polygon fill="#A80036" points="63.4716,298.052,55.6504,304.0377,61.0774,302.4415,62.6736,307.8685,63.4716,298.052" style="stroke: #A80036; stroke-width: 1.0;"/><text fill="#000000" font-family="sans-serif" font-size="11" lengthAdjust="spacingAndGlyphs" textLength="12" x="52.5" y="330.4189">25</text><!--link 0,0 to 1,0--><path d="M79.2713,298.052 C85.0173,312.098 93.3049,332.357 99.5889,347.717 " fill="none" id="0,0-1,0" style="stroke: #A80036; stroke-width: 1.0;"/><polygon fill="#A80036" points="101.6366,352.723,101.9316,342.8786,99.7437,348.0952,94.5271,345.9072,101.6366,352.723" style="stroke: #A80036; stroke-width: 1.0;"/><text fill="#000000" font-family="sans-serif" font-size="11" lengthAdjust="spacingAndGlyphs" textLength="6" x="93.5" y="330.4189">5</text><!--link 1,0 to 0,0--><path d="M108.454,352.668 C107.889,342.305 106.174,328.955 101.5,318 C99.1181,312.417 95.6427,306.972 91.9191,302.064 " fill="none" id="1,0-0,0" style="stroke: #A80036; stroke-width: 1.0;"/><polygon fill="#A80036" points="88.7513,298.076,91.2172,307.6112,91.8613,301.9911,97.4813,302.6352,88.7513,298.076" style="stroke: #A80036; stroke-width: 1.0;"/><text fill="#000000" font-family="sans-serif" font-size="11" lengthAdjust="spacingAndGlyphs" textLength="6" x="106.5" y="330.4189">5</text><!--link 1,0 to 2,0--><path d="M100.0569,388.155 C97.4064,394.239 94.8272,401.279 93.5,408 C91.5312,417.971 93.8196,428.852 97.0787,438.032 " fill="none" id="1,0-2,0" style="stroke: #A80036; stroke-width: 1.0;"/><polygon fill="#A80036" points="98.9682,442.941,99.4662,433.1047,97.1712,438.2751,92.0008,435.98,98.9682,442.941" style="stroke: #A80036; stroke-width: 1.0;"/><text fill="#000000" font-family="sans-serif" font-size="11" lengthAdjust="spacingAndGlyphs" textLength="6" x="94.5" y="420.4189">5</text><!--link 2,0 to 1,0--><path d="M107.691,442.723 C107.85,428.734 108.077,408.698 108.251,393.438 " fill="none" id="2,0-1,0" style="stroke: #A80036; stroke-width: 1.0;"/><polygon fill="#A80036" points="108.312,388.052,104.2094,397.0057,108.2549,393.0517,112.2089,397.0971,108.312,388.052" style="stroke: #A80036; stroke-width: 1.0;"/><text fill="#000000" font-family="sans-serif" font-size="11" lengthAdjust="spacingAndGlyphs" textLength="6" x="108.5" y="420.4189">5</text><!--link 2,0 to 3,0--><path d="M99.0699,478.039 C94.951,488.061 91.3065,501.156 93.5,513 C94.427,518.005 96.0124,523.21 97.7909,528.069 " fill="none" id="2,0-3,0" style="stroke: #A80036; stroke-width: 1.0;"/><polygon fill="#A80036" points="99.6166,532.792,100.1024,522.9551,97.8138,528.1283,92.6406,525.8397,99.6166,532.792" style="stroke: #A80036; stroke-width: 1.0;"/><text fill="#000000" font-family="sans-serif" font-size="11" lengthAdjust="spacingAndGlyphs" textLength="6" x="94.5" y="510.4189">5</text><!--link 3,0 to 2,0--><path d="M107.5,532.723 C107.5,518.734 107.5,498.698 107.5,483.438 " fill="none" id="3,0-2,0" style="stroke: #A80036; stroke-width: 1.0;"/><polygon fill="#A80036" points="107.5,478.052,103.5,487.052,107.5,483.052,111.5,487.052,107.5,478.052" style="stroke: #A80036; stroke-width: 1.0;"/><text fill="#000000" font-family="sans-serif" font-size="11" lengthAdjust="spacingAndGlyphs" textLength="6" x="108.5" y="510.4189">5</text><!--link 3,0 to 4,0--><path d="M99.0699,568.039 C94.951,578.061 91.3065,591.156 93.5,603 C94.427,608.005 96.0124,613.21 97.7909,618.069 " fill="none" id="3,0-4,0" style="stroke: #A80036; stroke-width: 1.0;"/><polygon fill="#A80036" points="99.6166,622.792,100.1024,612.9551,97.8138,618.1283,92.6406,615.8397,99.6166,622.792" style="stroke: #A80036; stroke-width: 1.0;"/><text fill="#000000" font-family="sans-serif" font-size="11" lengthAdjust="spacingAndGlyphs" textLength="6" x="94.5" y="600.4189">5</text><!--link 4,0 to 3,0--><path d="M107.5,622.723 C107.5,608.734 107.5,588.698 107.5,573.438 " fill="none" id="4,0-3,0" style="stroke: #A80036; stroke-width: 1.0;"/><polygon fill="#A80036" points="107.5,568.052,103.5,577.052,107.5,573.052,111.5,577.052,107.5,568.052" style="stroke: #A80036; stroke-width: 1.0;"/><text fill="#000000" font-family="sans-serif" font-size="11" lengthAdjust="spacingAndGlyphs" textLength="6" x="108.5" y="600.4189">5</text><!--link 4,0 to 5,0--><path d="M99.0699,658.0392 C94.951,668.0609 91.3065,681.1563 93.5,693 C94.427,698.0051 96.0124,703.2103 97.7909,708.0689 " fill="none" id="4,0-5,0" style="stroke: #A80036; stroke-width: 1.0;"/><polygon fill="#A80036" points="99.6166,712.7916,100.1024,702.9547,97.8138,708.1279,92.6406,705.8393,99.6166,712.7916" style="stroke: #A80036; stroke-width: 1.0;"/><text fill="#000000" font-family="sans-serif" font-size="11" lengthAdjust="spacingAndGlyphs" textLength="6" x="94.5" y="690.4189">5</text><!--link 5,0 to 4,0--><path d="M107.5,712.7229 C107.5,698.7341 107.5,678.6979 107.5,663.438 " fill="none" id="5,0-4,0" style="stroke: #A80036; stroke-width: 1.0;"/><polygon fill="#A80036" points="107.5,658.0521,103.5,667.0521,107.5,663.0521,111.5,667.0521,107.5,658.0521" style="stroke: #A80036; stroke-width: 1.0;"/><text fill="#000000" font-family="sans-serif" font-size="11" lengthAdjust="spacingAndGlyphs" textLength="6" x="108.5" y="690.4189">5</text><!--
@startuml
(*) - -> [1] "null,null"
"null,null" - -> [1] "0,null"
"0,null" - -> [1] "0,0"
"0,0" - -> [25] "0,1"
"0,1" - -> [25] "0,0"
"0,0" - -> [5] "1,0"
"1,0" - -> [5] "2,0"
"2,0" - -> [5] "3,0"
"3,0" - -> [5] "4,0"
"4,0" - -> [5] "5,0"
"5,0" - -> [5] "4,0"
"4,0" - -> [5] "3,0"
"3,0" - -> [5] "2,0"
"2,0" - -> [5] "1,0"
"1,0" - -> [5] "0,0" #red
@enduml

PlantUML version 1.2018.09(Fri Jul 27 12:58:18 EDT 2018)
(EPL source distribution)
Java Runtime: Java(TM) SE Runtime Environment
JVM: Java HotSpot(TM) 64-Bit Server VM
Java Version: 1.8.0_181-b13
Operating System: Windows 10
OS Version: 10.0
Default Encoding: Cp1252
Language: en
Country: US
--></g></svg>